<svg xmlns="http://www.w3.org/2000/svg" xmlns:xlink="http://www.w3.org/1999/xlink" width="500" zoomAndPan="magnify" viewBox="0 0 375 374.999991" height="500" preserveAspectRatio="xMidYMid meet" version="1.0"><defs><g/><clipPath id="1261bb3b81"><path d="M 228 112.054688 L 294.6875 112.054688 L 294.6875 181.804688 L 228 181.804688 Z M 228 112.054688 " clip-rule="nonzero"/></clipPath><clipPath id="12b4cbd655"><path d="M 57 0.0546875 L 61 0.0546875 L 61 16 L 57 16 Z M 57 0.0546875 " clip-rule="nonzero"/></clipPath><clipPath id="dd40d80cc6"><path d="M 38 2 L 66.6875 2 L 66.6875 32 L 38 32 Z M 38 2 " clip-rule="nonzero"/></clipPath><clipPath id="a72ee8611f"><path d="M 0.136719 24 L 24 24 L 24 33 L 0.136719 33 Z M 0.136719 24 " clip-rule="nonzero"/></clipPath><clipPath id="28bf81563b"><path d="M 38 46 L 47 46 L 47 69.804688 L 38 69.804688 Z M 38 46 " clip-rule="nonzero"/></clipPath><clipPath id="a0341132ff"><rect x="0" width="67" y="0" height="70"/></clipPath><clipPath id="43b547987f"><rect x="0" width="171" y="0" height="66"/></clipPath><clipPath id="9a0a520595"><rect x="0" width="17" y="0" height="67"/></clipPath></defs><g clip-path="url(#1261bb3b81)"><g transform="matrix(1, 0, 0, 1, 228, 112)"><g clip-path="url(#a0341132ff)"><path fill="#1b4965" d="M 32.617188 37.167969 C 31.285156 35.835938 30.65625 33.953125 30.921875 32.085938 L 37.699219 38.863281 C 35.835938 39.125 33.953125 38.5 32.617188 37.167969 Z M 32.617188 37.167969 " fill-opacity="1" fill-rule="nonzero"/><g clip-path="url(#12b4cbd655)"><path fill="#1b4965" d="M 60.144531 15.632812 L 57.746094 15.632812 L 57.746094 0.0546875 L 60.144531 0.0546875 Z M 60.144531 15.632812 " fill-opacity="1" fill-rule="nonzero"/></g><path fill="#1b4965" d="M 36.527344 17.355469 L 52.429688 33.257812 L 48.191406 45.964844 L 23.820312 21.59375 Z M 36.527344 17.355469 " fill-opacity="1" fill-rule="nonzero"/><g clip-path="url(#dd40d80cc6)"><path fill="#1b4965" d="M 66.511719 16.832031 C 66.734375 17.058594 66.863281 17.363281 66.863281 17.679688 C 66.863281 18 66.734375 18.304688 66.511719 18.53125 L 53.808594 31.246094 L 38.542969 15.980469 L 51.261719 3.277344 C 51.484375 3.050781 51.789062 2.925781 52.109375 2.925781 C 52.425781 2.925781 52.730469 3.050781 52.957031 3.277344 L 55.355469 5.675781 L 55.355469 16.832031 C 55.355469 17.492188 55.890625 18.03125 56.550781 18.03125 L 61.339844 18.03125 C 62.003906 18.03125 62.539062 17.492188 62.539062 16.832031 L 62.539062 12.859375 Z M 66.511719 16.832031 " fill-opacity="1" fill-rule="nonzero"/></g><path fill="#1b4965" d="M 24.992188 43.097656 C 25.460938 42.644531 26.210938 42.652344 26.671875 43.113281 C 27.136719 43.574219 27.140625 44.324219 26.6875 44.792969 L 11.433594 60.046875 C 11.132812 60.355469 10.6875 60.480469 10.269531 60.371094 C 9.851562 60.261719 9.523438 59.933594 9.414062 59.515625 C 9.304688 59.097656 9.429688 58.652344 9.742188 58.351562 Z M 24.992188 43.097656 " fill-opacity="1" fill-rule="nonzero"/><g clip-path="url(#a72ee8611f)"><path fill="#1b4965" d="M 0.125 25.363281 C 0.296875 24.722656 0.953125 24.34375 1.59375 24.515625 L 22.425781 30.097656 C 23.007812 30.253906 23.382812 30.8125 23.304688 31.410156 C 23.226562 32.007812 22.71875 32.453125 22.117188 32.453125 C 22.015625 32.453125 21.910156 32.441406 21.808594 32.414062 L 0.972656 26.832031 C 0.332031 26.660156 -0.046875 26 0.125 25.363281 Z M 0.125 25.363281 " fill-opacity="1" fill-rule="nonzero"/></g><g clip-path="url(#28bf81563b)"><path fill="#1b4965" d="M 39.414062 46.511719 C 40.050781 46.339844 40.710938 46.71875 40.882812 47.359375 L 46.46875 68.191406 C 46.640625 68.832031 46.261719 69.488281 45.621094 69.660156 C 45.519531 69.6875 45.414062 69.699219 45.308594 69.699219 C 44.765625 69.699219 44.292969 69.335938 44.152344 68.8125 L 38.574219 47.980469 C 38.402344 47.34375 38.777344 46.6875 39.414062 46.511719 Z M 39.414062 46.511719 " fill-opacity="1" fill-rule="nonzero"/></g><path fill="#1b4965" d="M 9.46875 40.355469 L 23.355469 36.632812 C 23.992188 36.464844 24.648438 36.84375 24.816406 37.480469 C 24.988281 38.117188 24.609375 38.773438 23.976562 38.945312 L 10.085938 42.671875 C 9.984375 42.695312 9.878906 42.710938 9.777344 42.710938 C 9.175781 42.710938 8.667969 42.265625 8.589844 41.667969 C 8.511719 41.070312 8.886719 40.511719 9.464844 40.355469 Z M 9.46875 40.355469 " fill-opacity="1" fill-rule="nonzero"/><path fill="#1b4965" d="M 30.839844 45.808594 C 31.011719 45.171875 31.667969 44.796875 32.304688 44.964844 C 32.941406 45.136719 33.320312 45.789062 33.152344 46.429688 L 29.429688 60.316406 C 29.289062 60.839844 28.816406 61.203125 28.273438 61.203125 C 28.171875 61.207031 28.066406 61.195312 27.964844 61.167969 C 27.324219 61 26.945312 60.339844 27.117188 59.703125 Z M 30.839844 45.808594 " fill-opacity="1" fill-rule="nonzero"/></g></g></g><g fill="#1b4965" fill-opacity="1"><g transform="translate(82.936023, 175.360066)"><g><path d="M 8.65625 -32.703125 L 8.65625 -17.75 L 27.3125 -17.75 L 27.3125 -15.453125 L 8.65625 -15.453125 L 8.65625 0 L 6.109375 0 L 6.109375 -35.015625 L 29.515625 -35.015625 L 29.515625 -32.703125 Z M 8.65625 -32.703125 "/></g></g></g><g fill="#1b4965" fill-opacity="1"><g transform="translate(110.644341, 175.360066)"><g><path d="M 7.703125 -20.40625 C 8.503906 -22.300781 9.753906 -23.757812 11.453125 -24.78125 C 13.148438 -25.800781 15.21875 -26.3125 17.65625 -26.3125 L 17.65625 -23.859375 L 17.0625 -23.90625 C 14.15625 -23.90625 11.882812 -22.992188 10.25 -21.171875 C 8.613281 -19.359375 7.796875 -16.835938 7.796875 -13.609375 L 7.796875 0 L 5.296875 0 L 5.296875 -26.109375 L 7.703125 -26.109375 Z M 7.703125 -20.40625 "/></g></g></g><g fill="#1b4965" fill-opacity="1"><g transform="translate(126.498939, 175.360066)"><g><path d="M 27.359375 -12.453125 L 4.90625 -12.453125 C 4.96875 -10.421875 5.484375 -8.613281 6.453125 -7.03125 C 7.421875 -5.445312 8.726562 -4.21875 10.375 -3.34375 C 12.03125 -2.476562 13.890625 -2.046875 15.953125 -2.046875 C 17.648438 -2.046875 19.222656 -2.351562 20.671875 -2.96875 C 22.128906 -3.59375 23.34375 -4.503906 24.3125 -5.703125 L 25.765625 -4.046875 C 24.628906 -2.679688 23.203125 -1.628906 21.484375 -0.890625 C 19.765625 -0.160156 17.90625 0.203125 15.90625 0.203125 C 13.300781 0.203125 10.984375 -0.363281 8.953125 -1.5 C 6.921875 -2.632812 5.328125 -4.203125 4.171875 -6.203125 C 3.023438 -8.203125 2.453125 -10.484375 2.453125 -13.046875 C 2.453125 -15.585938 2.992188 -17.863281 4.078125 -19.875 C 5.160156 -21.894531 6.648438 -23.472656 8.546875 -24.609375 C 10.453125 -25.742188 12.585938 -26.3125 14.953125 -26.3125 C 17.316406 -26.3125 19.441406 -25.75 21.328125 -24.625 C 23.210938 -23.507812 24.695312 -21.953125 25.78125 -19.953125 C 26.863281 -17.953125 27.40625 -15.6875 27.40625 -13.15625 Z M 14.953125 -24.109375 C 13.117188 -24.109375 11.46875 -23.695312 10 -22.875 C 8.53125 -22.0625 7.351562 -20.910156 6.46875 -19.421875 C 5.59375 -17.941406 5.085938 -16.269531 4.953125 -14.40625 L 24.953125 -14.40625 C 24.859375 -16.269531 24.359375 -17.9375 23.453125 -19.40625 C 22.554688 -20.875 21.375 -22.023438 19.90625 -22.859375 C 18.4375 -23.691406 16.785156 -24.109375 14.953125 -24.109375 Z M 14.953125 -24.109375 "/></g></g></g><g fill="#1b4965" fill-opacity="1"><g transform="translate(152.506723, 175.360066)"><g><path d="M 11.90625 0.203125 C 9.800781 0.203125 7.796875 -0.113281 5.890625 -0.75 C 3.992188 -1.382812 2.515625 -2.1875 1.453125 -3.15625 L 2.59375 -5.15625 C 3.664062 -4.25 5.039062 -3.492188 6.71875 -2.890625 C 8.40625 -2.296875 10.164062 -2 12 -2 C 14.632812 -2 16.578125 -2.429688 17.828125 -3.296875 C 19.078125 -4.160156 19.703125 -5.363281 19.703125 -6.90625 C 19.703125 -8 19.359375 -8.863281 18.671875 -9.5 C 17.992188 -10.132812 17.15625 -10.601562 16.15625 -10.90625 C 15.15625 -11.207031 13.769531 -11.523438 12 -11.859375 C 9.9375 -12.222656 8.269531 -12.617188 7 -13.046875 C 5.738281 -13.484375 4.65625 -14.1875 3.75 -15.15625 C 2.851562 -16.125 2.40625 -17.457031 2.40625 -19.15625 C 2.40625 -21.21875 3.257812 -22.925781 4.96875 -24.28125 C 6.6875 -25.632812 9.128906 -26.3125 12.296875 -26.3125 C 13.960938 -26.3125 15.613281 -26.078125 17.25 -25.609375 C 18.882812 -25.140625 20.21875 -24.519531 21.25 -23.75 L 20.109375 -21.75 C 19.035156 -22.519531 17.816406 -23.101562 16.453125 -23.5 C 15.085938 -23.90625 13.6875 -24.109375 12.25 -24.109375 C 9.820312 -24.109375 7.988281 -23.65625 6.75 -22.75 C 5.519531 -21.851562 4.90625 -20.671875 4.90625 -19.203125 C 4.90625 -18.035156 5.253906 -17.125 5.953125 -16.46875 C 6.648438 -15.820312 7.503906 -15.335938 8.515625 -15.015625 C 9.535156 -14.703125 10.960938 -14.363281 12.796875 -14 C 14.835938 -13.632812 16.484375 -13.242188 17.734375 -12.828125 C 18.984375 -12.410156 20.039062 -11.734375 20.90625 -10.796875 C 21.769531 -9.867188 22.203125 -8.585938 22.203125 -6.953125 C 22.203125 -4.785156 21.300781 -3.050781 19.5 -1.75 C 17.707031 -0.445312 15.175781 0.203125 11.90625 0.203125 Z M 11.90625 0.203125 "/></g></g></g><g fill="#1b4965" fill-opacity="1"><g transform="translate(172.562641, 175.360066)"><g><path d="M 18.0625 -26.3125 C 21.320312 -26.3125 23.898438 -25.359375 25.796875 -23.453125 C 27.703125 -21.554688 28.65625 -18.820312 28.65625 -15.25 L 28.65625 0 L 26.15625 0 L 26.15625 -15.0625 C 26.15625 -17.988281 25.410156 -20.21875 23.921875 -21.75 C 22.441406 -23.289062 20.367188 -24.0625 17.703125 -24.0625 C 14.640625 -24.0625 12.222656 -23.144531 10.453125 -21.3125 C 8.679688 -19.476562 7.796875 -17.007812 7.796875 -13.90625 L 7.796875 0 L 5.296875 0 L 5.296875 -37.109375 L 7.796875 -37.109375 L 7.796875 -20.65625 C 8.703125 -22.457031 10.035156 -23.847656 11.796875 -24.828125 C 13.566406 -25.816406 15.65625 -26.3125 18.0625 -26.3125 Z M 18.0625 -26.3125 "/></g></g></g><g fill="#1b4965" fill-opacity="1"><g transform="translate(202.373515, 175.360066)"><g><path d="M 8.359375 -21.15625 C 9.191406 -22.925781 10.429688 -24.257812 12.078125 -25.15625 C 13.722656 -26.0625 15.765625 -26.515625 18.203125 -26.515625 L 18.203125 -23.0625 L 17.359375 -23.109375 C 14.585938 -23.109375 12.414062 -22.253906 10.84375 -20.546875 C 9.28125 -18.847656 8.5 -16.46875 8.5 -13.40625 L 8.5 0 L 4.953125 0 L 4.953125 -26.3125 L 8.359375 -26.3125 Z M 8.359375 -21.15625 "/></g></g></g><g transform="matrix(1, 0, 0, 1, 102, 165)"><g clip-path="url(#43b547987f)"><g fill="#1b4965" fill-opacity="1"><g transform="translate(1.463486, 50.091624)"><g><path d="M 16.515625 0.484375 C 14.535156 0.484375 12.675781 0.25 10.9375 -0.21875 C 9.195312 -0.6875 7.640625 -1.378906 6.265625 -2.296875 C 4.890625 -3.222656 3.757812 -4.367188 2.875 -5.734375 C 2 -7.109375 1.441406 -8.695312 1.203125 -10.5 L 10.40625 -12.609375 C 10.90625 -10.585938 11.6875 -9.140625 12.75 -8.265625 C 13.820312 -7.390625 15.125 -6.953125 16.65625 -6.953125 C 17.957031 -6.953125 18.957031 -7.222656 19.65625 -7.765625 C 20.351562 -8.316406 20.703125 -9.066406 20.703125 -10.015625 C 20.703125 -10.734375 20.503906 -11.347656 20.109375 -11.859375 C 19.710938 -12.367188 19.171875 -12.8125 18.484375 -13.1875 C 17.804688 -13.5625 17.019531 -13.90625 16.125 -14.21875 C 15.226562 -14.539062 14.273438 -14.875 13.265625 -15.21875 C 12.253906 -15.5625 11.238281 -15.925781 10.21875 -16.3125 C 9.195312 -16.707031 8.226562 -17.164062 7.3125 -17.6875 C 6.394531 -18.21875 5.578125 -18.847656 4.859375 -19.578125 C 4.140625 -20.316406 3.570312 -21.1875 3.15625 -22.1875 C 2.75 -23.1875 2.546875 -24.363281 2.546875 -25.71875 C 2.546875 -27.363281 2.863281 -28.84375 3.5 -30.15625 C 4.144531 -31.476562 5.050781 -32.601562 6.21875 -33.53125 C 7.394531 -34.457031 8.785156 -35.164062 10.390625 -35.65625 C 11.992188 -36.15625 13.765625 -36.40625 15.703125 -36.40625 C 17.285156 -36.40625 18.859375 -36.234375 20.421875 -35.890625 C 21.992188 -35.554688 23.460938 -35.003906 24.828125 -34.234375 C 26.203125 -33.472656 27.375 -32.457031 28.34375 -31.1875 C 29.3125 -29.914062 29.984375 -28.351562 30.359375 -26.5 L 22 -24.453125 C 21.445312 -25.992188 20.722656 -27.128906 19.828125 -27.859375 C 18.929688 -28.597656 17.757812 -28.96875 16.3125 -28.96875 C 15.03125 -28.96875 13.976562 -28.71875 13.15625 -28.21875 C 12.34375 -27.71875 11.9375 -27.015625 11.9375 -26.109375 C 11.9375 -25.523438 12.117188 -25.023438 12.484375 -24.609375 C 12.859375 -24.203125 13.363281 -23.847656 14 -23.546875 C 14.644531 -23.253906 15.382812 -22.972656 16.21875 -22.703125 C 17.050781 -22.429688 17.929688 -22.148438 18.859375 -21.859375 C 19.898438 -21.515625 20.960938 -21.132812 22.046875 -20.71875 C 23.128906 -20.300781 24.164062 -19.804688 25.15625 -19.234375 C 26.144531 -18.671875 27.03125 -17.988281 27.8125 -17.1875 C 28.59375 -16.394531 29.210938 -15.457031 29.671875 -14.375 C 30.128906 -13.289062 30.359375 -12.015625 30.359375 -10.546875 C 30.359375 -8.859375 30.03125 -7.332031 29.375 -5.96875 C 28.726562 -4.613281 27.789062 -3.453125 26.5625 -2.484375 C 25.34375 -1.523438 23.882812 -0.789062 22.1875 -0.28125 C 20.488281 0.226562 18.597656 0.484375 16.515625 0.484375 Z M 16.515625 0.484375 "/></g></g></g><g fill="#1b4965" fill-opacity="1"><g transform="translate(29.723401, 50.091624)"><g><path d="M 13.65625 0 C 10.90625 0 8.800781 -0.753906 7.34375 -2.265625 C 5.882812 -3.785156 5.15625 -5.925781 5.15625 -8.6875 L 5.15625 -19.09375 L 0.203125 -19.09375 L 0.203125 -25.859375 L 1.65625 -25.859375 C 2.570312 -25.859375 3.375 -26.003906 4.0625 -26.296875 C 4.757812 -26.585938 5.296875 -27.128906 5.671875 -27.921875 C 6.054688 -28.710938 6.25 -29.859375 6.25 -31.359375 L 6.25 -34.015625 L 14.21875 -34.015625 L 14.21875 -25.859375 L 19.140625 -25.859375 L 19.140625 -19.09375 L 14.21875 -19.09375 L 14.21875 -9.703125 C 14.21875 -8.609375 14.4375 -7.820312 14.875 -7.34375 C 15.3125 -6.875 15.96875 -6.640625 16.84375 -6.640625 L 19.140625 -6.640625 L 19.140625 0 Z M 13.65625 0 "/></g></g></g><g fill="#1b4965" fill-opacity="1"><g transform="translate(46.823657, 50.091624)"><g><path d="M 20.953125 -25.859375 L 29.875 -25.859375 L 29.875 0 L 21.46875 0 L 21.21875 -2.984375 C 20.28125 -1.890625 19.082031 -1.035156 17.625 -0.421875 C 16.164062 0.179688 14.523438 0.484375 12.703125 0.484375 C 9.328125 0.484375 6.804688 -0.296875 5.140625 -1.859375 C 3.484375 -3.429688 2.65625 -5.628906 2.65625 -8.453125 L 2.65625 -25.859375 L 11.59375 -25.859375 L 11.59375 -10.359375 C 11.59375 -9.410156 11.773438 -8.65625 12.140625 -8.09375 C 12.515625 -7.53125 13.003906 -7.128906 13.609375 -6.890625 C 14.222656 -6.660156 14.890625 -6.546875 15.609375 -6.546875 C 16.273438 -6.546875 16.921875 -6.628906 17.546875 -6.796875 C 18.171875 -6.972656 18.738281 -7.269531 19.25 -7.6875 C 19.769531 -8.113281 20.175781 -8.703125 20.46875 -9.453125 C 20.769531 -10.210938 20.929688 -11.179688 20.953125 -12.359375 Z M 20.953125 -25.859375 "/></g></g></g><g fill="#1b4965" fill-opacity="1"><g transform="translate(76.035927, 50.091624)"><g><path d="M 21.046875 -37.515625 L 29.96875 -37.515625 L 29.96875 0 L 21.5625 0 L 21.375 -2.46875 C 20.664062 -1.4375 19.632812 -0.65625 18.28125 -0.125 C 16.9375 0.394531 15.457031 0.65625 13.84375 0.65625 C 12.125 0.65625 10.5 0.359375 8.96875 -0.234375 C 7.445312 -0.835938 6.101562 -1.710938 4.9375 -2.859375 C 3.78125 -4.015625 2.867188 -5.429688 2.203125 -7.109375 C 1.535156 -8.785156 1.203125 -10.695312 1.203125 -12.84375 C 1.203125 -14.988281 1.535156 -16.898438 2.203125 -18.578125 C 2.867188 -20.253906 3.78125 -21.671875 4.9375 -22.828125 C 6.101562 -23.984375 7.445312 -24.859375 8.96875 -25.453125 C 10.5 -26.046875 12.125 -26.34375 13.84375 -26.34375 C 15.34375 -26.34375 16.726562 -26.117188 18 -25.671875 C 19.28125 -25.234375 20.296875 -24.566406 21.046875 -23.671875 Z M 15.953125 -6.640625 C 17.054688 -6.640625 18.046875 -6.882812 18.921875 -7.375 C 19.804688 -7.863281 20.507812 -8.570312 21.03125 -9.5 C 21.550781 -10.425781 21.8125 -11.539062 21.8125 -12.84375 C 21.8125 -14.164062 21.550781 -15.289062 21.03125 -16.21875 C 20.507812 -17.144531 19.804688 -17.847656 18.921875 -18.328125 C 18.046875 -18.804688 17.054688 -19.046875 15.953125 -19.046875 C 14.859375 -19.046875 13.867188 -18.804688 12.984375 -18.328125 C 12.097656 -17.847656 11.394531 -17.144531 10.875 -16.21875 C 10.363281 -15.289062 10.109375 -14.164062 10.109375 -12.84375 C 10.109375 -11.539062 10.363281 -10.425781 10.875 -9.5 C 11.394531 -8.570312 12.097656 -7.863281 12.984375 -7.375 C 13.867188 -6.882812 14.859375 -6.640625 15.953125 -6.640625 Z M 15.953125 -6.640625 "/></g></g></g><g fill="#1b4965" fill-opacity="1"><g transform="translate(105.345874, 50.091624)"><g><path d="M 7.734375 -28.359375 C 6.847656 -28.359375 6.03125 -28.570312 5.28125 -29 C 4.53125 -29.425781 3.929688 -30.007812 3.484375 -30.75 C 3.046875 -31.5 2.828125 -32.320312 2.828125 -33.21875 C 2.828125 -34.09375 3.046875 -34.890625 3.484375 -35.609375 C 3.929688 -36.335938 4.53125 -36.914062 5.28125 -37.34375 C 6.03125 -37.78125 6.847656 -38 7.734375 -38 C 8.597656 -38 9.390625 -37.78125 10.109375 -37.34375 C 10.835938 -36.914062 11.421875 -36.335938 11.859375 -35.609375 C 12.304688 -34.890625 12.53125 -34.09375 12.53125 -33.21875 C 12.53125 -32.320312 12.304688 -31.5 11.859375 -30.75 C 11.421875 -30.007812 10.835938 -29.425781 10.109375 -29 C 9.390625 -28.570312 8.597656 -28.359375 7.734375 -28.359375 Z M 3.203125 0 L 3.203125 -25.859375 L 12.15625 -25.859375 L 12.15625 0 Z M 3.203125 0 "/></g></g></g><g fill="#1b4965" fill-opacity="1"><g transform="translate(116.854092, 50.091624)"><g><path d="M 15.953125 0.484375 C 13.765625 0.484375 11.765625 0.1875 9.953125 -0.40625 C 8.140625 -1 6.570312 -1.867188 5.25 -3.015625 C 3.925781 -4.160156 2.898438 -5.566406 2.171875 -7.234375 C 1.453125 -8.910156 1.09375 -10.8125 1.09375 -12.9375 C 1.09375 -15.070312 1.453125 -16.96875 2.171875 -18.625 C 2.890625 -20.289062 3.90625 -21.695312 5.21875 -22.84375 C 6.539062 -23.988281 8.109375 -24.859375 9.921875 -25.453125 C 11.742188 -26.046875 13.753906 -26.34375 15.953125 -26.34375 C 18.160156 -26.34375 20.175781 -26.046875 22 -25.453125 C 23.820312 -24.859375 25.394531 -23.988281 26.71875 -22.84375 C 28.050781 -21.695312 29.078125 -20.289062 29.796875 -18.625 C 30.515625 -16.96875 30.875 -15.070312 30.875 -12.9375 C 30.875 -10.8125 30.507812 -8.910156 29.78125 -7.234375 C 29.0625 -5.566406 28.035156 -4.160156 26.703125 -3.015625 C 25.378906 -1.867188 23.804688 -1 21.984375 -0.40625 C 20.160156 0.1875 18.148438 0.484375 15.953125 0.484375 Z M 15.84375 -6.453125 C 17.113281 -6.453125 18.207031 -6.726562 19.125 -7.28125 C 20.050781 -7.832031 20.757812 -8.59375 21.25 -9.5625 C 21.75 -10.539062 22 -11.664062 22 -12.9375 C 22 -14.226562 21.75 -15.359375 21.25 -16.328125 C 20.757812 -17.304688 20.050781 -18.070312 19.125 -18.625 C 18.207031 -19.1875 17.113281 -19.46875 15.84375 -19.46875 C 14.65625 -19.46875 13.617188 -19.1875 12.734375 -18.625 C 11.847656 -18.070312 11.164062 -17.304688 10.6875 -16.328125 C 10.207031 -15.359375 9.96875 -14.226562 9.96875 -12.9375 C 9.96875 -11.664062 10.207031 -10.539062 10.6875 -9.5625 C 11.164062 -8.59375 11.847656 -7.832031 12.734375 -7.28125 C 13.617188 -6.726562 14.65625 -6.453125 15.84375 -6.453125 Z M 15.84375 -6.453125 "/></g></g></g><g fill="#1b4965" fill-opacity="1"><g transform="translate(144.96749, 50.091624)"><g><path d="M 12.84375 0.484375 C 10.851562 0.484375 9.03125 0.238281 7.375 -0.25 C 5.71875 -0.75 4.34375 -1.523438 3.25 -2.578125 C 2.15625 -3.640625 1.4375 -5.007812 1.09375 -6.6875 L 8.453125 -8.75 C 8.753906 -7.894531 9.128906 -7.234375 9.578125 -6.765625 C 10.023438 -6.304688 10.535156 -5.988281 11.109375 -5.8125 C 11.679688 -5.632812 12.273438 -5.546875 12.890625 -5.546875 C 13.328125 -5.546875 13.757812 -5.585938 14.1875 -5.671875 C 14.613281 -5.765625 14.960938 -5.9375 15.234375 -6.1875 C 15.515625 -6.4375 15.65625 -6.789062 15.65625 -7.25 C 15.65625 -7.875 15.398438 -8.359375 14.890625 -8.703125 C 14.390625 -9.054688 13.722656 -9.347656 12.890625 -9.578125 C 12.066406 -9.816406 11.148438 -10.0625 10.140625 -10.3125 C 9.128906 -10.570312 8.117188 -10.90625 7.109375 -11.3125 C 6.179688 -11.6875 5.304688 -12.148438 4.484375 -12.703125 C 3.660156 -13.265625 2.988281 -14.003906 2.46875 -14.921875 C 1.957031 -15.835938 1.703125 -16.984375 1.703125 -18.359375 C 1.703125 -20.179688 2.164062 -21.675781 3.09375 -22.84375 C 4.03125 -24.019531 5.304688 -24.894531 6.921875 -25.46875 C 8.546875 -26.050781 10.390625 -26.34375 12.453125 -26.34375 C 13.753906 -26.34375 15.023438 -26.222656 16.265625 -25.984375 C 17.515625 -25.742188 18.664062 -25.351562 19.71875 -24.8125 C 20.769531 -24.269531 21.660156 -23.5625 22.390625 -22.6875 C 23.128906 -21.8125 23.632812 -20.738281 23.90625 -19.46875 L 16.40625 -18 C 15.957031 -19.007812 15.414062 -19.695312 14.78125 -20.0625 C 14.144531 -20.425781 13.367188 -20.609375 12.453125 -20.609375 C 11.660156 -20.609375 11.007812 -20.488281 10.5 -20.25 C 10 -20.019531 9.75 -19.671875 9.75 -19.203125 C 9.75 -18.804688 9.914062 -18.484375 10.25 -18.234375 C 10.582031 -17.992188 11.035156 -17.785156 11.609375 -17.609375 C 12.191406 -17.429688 12.851562 -17.257812 13.59375 -17.09375 C 14.332031 -16.925781 15.101562 -16.734375 15.90625 -16.515625 C 16.894531 -16.234375 17.875 -15.882812 18.84375 -15.46875 C 19.820312 -15.050781 20.710938 -14.515625 21.515625 -13.859375 C 22.328125 -13.210938 22.976562 -12.398438 23.46875 -11.421875 C 23.957031 -10.453125 24.203125 -9.265625 24.203125 -7.859375 C 24.203125 -6.316406 23.890625 -5.007812 23.265625 -3.9375 C 22.648438 -2.875 21.8125 -2.015625 20.75 -1.359375 C 19.695312 -0.710938 18.488281 -0.242188 17.125 0.046875 C 15.769531 0.335938 14.34375 0.484375 12.84375 0.484375 Z M 12.84375 0.484375 "/></g></g></g></g></g><g transform="matrix(1, 0, 0, 1, 269, 164)"><g clip-path="url(#9a0a520595)"><g fill="#fc9e4f" fill-opacity="1"><g transform="translate(1.164595, 49.983715)"><g><path d="M 8.25 0.5 C 7.363281 0.5 6.546875 0.273438 5.796875 -0.171875 C 5.046875 -0.617188 4.445312 -1.210938 4 -1.953125 C 3.550781 -2.703125 3.328125 -3.519531 3.328125 -4.40625 C 3.328125 -5.320312 3.550781 -6.15625 4 -6.90625 C 4.445312 -7.65625 5.046875 -8.253906 5.796875 -8.703125 C 6.546875 -9.148438 7.363281 -9.375 8.25 -9.375 C 9.15625 -9.375 9.984375 -9.148438 10.734375 -8.703125 C 11.484375 -8.253906 12.082031 -7.65625 12.53125 -6.90625 C 12.976562 -6.15625 13.203125 -5.320312 13.203125 -4.40625 C 13.203125 -3.519531 12.976562 -2.703125 12.53125 -1.953125 C 12.082031 -1.210938 11.484375 -0.617188 10.734375 -0.171875 C 9.984375 0.273438 9.15625 0.5 8.25 0.5 Z M 8.25 0.5 "/></g></g></g></g></g></svg>